0
SECTION
2
HEADER
9
$INSUNITS
70
4
9
$ACADVER
1
AC1014
9
$HANDSEED
5
FFFF
0
ENDSEC
0
SECTION
2
TABLES
0
TABLE
2
VPORT
5
8
100
AcDbSymbolTable
0
ENDTAB
0
TABLE
2
LTYPE
5
5
100
AcDbSymbolTable
0
LTYPE
5
14
100
AcDbSymbolTableRecord
100
AcDbLinetypeTableRecord
2
BYBLOCK
70
0
0
LTYPE
5
15
100
AcDbSymbolTableRecord
100
AcDbLinetypeTableRecord
2
BYLAYER
70
0
0
ENDTAB
0
TABLE
2
LAYER
5
2
100
AcDbSymbolTable
70
2
0
LAYER
5
50
100
AcDbSymbolTableRecord
100
AcDbLayerTableRecord
2
0
70
0
6
CONTINUOUS
0
ENDTAB
0
TABLE
2
STYLE
5
3
100
AcDbSymbolTable
70
1
0
STYLE
5
11
100
AcDbSymbolTableRecord
100
AcDbTextStyleTableRecord
2
STANDARD
70
0
0
ENDTAB
0
TABLE
2
VIEW
5
6
100
AcDbSymbolTable
70
0
0
ENDTAB
0
TABLE
2
UCS
5
7
100
AcDbSymbolTable
70
0
0
ENDTAB
0
TABLE
2
APPID
5
9
100
AcDbSymbolTable
70
2
0
APPID
5
12
100
AcDbSymbolTableRecord
100
AcDbRegAppTableRecord
2
ACAD
70
0
0
ENDTAB
0
TABLE
2
DIMSTYLE
5
A
100
AcDbSymbolTable
70
1
0
ENDTAB
0
TABLE
2
BLOCK_RECORD
5
1
100
AcDbSymbolTable
70
1
0
BLOCK_RECORD
5
1F
100
AcDbSymbolTableRecord
100
AcDbBlockTableRecord
2
*MODEL_SPACE
0
BLOCK_RECORD
5
1B
100
AcDbSymbolTableRecord
100
AcDbBlockTableRecord
2
*PAPER_SPACE
0
ENDTAB
0
ENDSEC
0
SECTION
2
BLOCKS
0
BLOCK
5
20
100
AcDbEntity
100
AcDbBlockBegin
2
*MODEL_SPACE
0
ENDBLK
5
21
100
AcDbEntity
100
AcDbBlockEnd
0
BLOCK
5
1C
100
AcDbEntity
100
AcDbBlockBegin
2
*PAPER_SPACE
0
ENDBLK
5
1D
100
AcDbEntity
100
AcDbBlockEnd
0
ENDSEC
0
SECTION
2
ENTITIES
0
LWPOLYLINE
5
100
100
AcDbEntity
8
0
100
AcDbPolyline
90
4
70
1
43
0.0
10
270.7940000000001
20
99.343999999999994
10
0.093706600000000015
20
99.343999999999994
10
0.093706599999983098
20
0.093706600000000015
10
270.7940000000001
20
0.093706600000000861
0
LWPOLYLINE
5
101
100
AcDbEntity
8
0
100
AcDbPolyline
90
4
70
1
43
0.0
10
58.961074005040217
20
99.121707484320183
10
39.961074005040217
20
99.121707484320183
10
39.961074005040217
20
66.121707484320183
10
58.961074005040217
20
66.121707484320183
0
LWPOLYLINE
5
102
100
AcDbEntity
8
0
100
AcDbPolyline
90
8
70
1
43
0.0
10
4.7177900000000017
20
80.919299999999993
10
18.518700000000003
20
80.919299999999993
10
23.769199999999998
20
80.919299999999993
10
37.568600000000004
20
80.919299999999993
10
37.568600000000004
20
94.719999999999999
10
23.769199999999998
20
94.719999999999999
10
18.518700000000003
20
94.719999999999999
10
4.7177900000000008
20
94.719999999999999
0
LWPOLYLINE
5
103
100
AcDbEntity
8
0
100
AcDbPolyline
90
8
70
1
43
0.0
10
4.7177900000000017
20
61.869300000000003
10
18.518700000000003
20
61.869300000000003
10
23.769199999999998
20
61.869300000000003
10
37.568600000000004
20
61.869300000000003
10
37.568600000000004
20
75.668600000000012
10
23.769199999999998
20
75.668600000000012
10
18.518700000000003
20
75.647772717960365
10
4.7177900000000008
20
75.647772717960365
0
LWPOLYLINE
5
104
100
AcDbEntity
8
0
100
AcDbPolyline
90
8
70
1
43
0.0
10
4.7177900000000017
20
42.819299999999998
10
18.518700000000003
20
42.819299999999998
10
23.769199999999998
20
42.819299999999998
10
37.568600000000004
20
42.819299999999998
10
37.568600000000004
20
56.618600000000008
10
23.769199999999998
20
56.618600000000008
10
18.518700000000003
20
56.618600000000008
10
4.7177900000000008
20
56.618600000000008
0
LWPOLYLINE
5
105
100
AcDbEntity
8
0
100
AcDbPolyline
90
8
70
1
43
0.0
10
4.7177900000000017
20
23.769199999999998
10
18.518700000000003
20
23.769199999999998
10
23.769199999999998
20
23.769199999999998
10
37.568600000000004
20
23.769199999999998
10
37.568600000000004
20
37.568600000000004
10
23.769199999999998
20
37.568600000000004
10
18.518700000000003
20
37.568600000000004
10
4.7177900000000008
20
37.568600000000004
0
LWPOLYLINE
5
106
100
AcDbEntity
8
0
100
AcDbPolyline
90
4
70
1
43
0.0
10
23.769199999999998
20
4.7192000000000007
10
37.568600000000004
20
4.7192000000000007
10
37.568600000000004
20
18.518700000000003
10
23.769199999999998
20
18.518700000000003
0
LWPOLYLINE
5
107
100
AcDbEntity
8
0
100
AcDbPolyline
90
4
70
1
43
0.0
10
42.819299999999998
20
80.919299999999993
10
56.618600000000008
20
80.919299999999993
10
56.618600000000008
20
94.719999999999999
10
42.819299999999998
20
94.719999999999999
0
LWPOLYLINE
5
108
100
AcDbEntity
8
0
100
AcDbPolyline
90
4
70
1
43
0.0
10
61.869300000000003
20
80.919299999999993
10
75.668600000000012
20
80.919299999999993
10
75.668600000000012
20
94.719999999999999
10
61.869300000000003
20
94.719999999999999
0
LWPOLYLINE
5
109
100
AcDbEntity
8
0
100
AcDbPolyline
90
4
70
1
43
0.0
10
42.819299999999998
20
61.869300000000003
10
56.618600000000008
20
61.869300000000003
10
56.618600000000008
20
75.668600000000012
10
42.819299999999998
20
75.668600000000012
0
LWPOLYLINE
5
110
100
AcDbEntity
8
0
100
AcDbPolyline
90
4
70
1
43
0.0
10
61.869300000000003
20
61.869300000000003
10
75.668600000000012
20
61.869300000000003
10
75.668600000000012
20
75.668600000000012
10
61.869300000000003
20
75.668600000000012
0
LWPOLYLINE
5
111
100
AcDbEntity
8
0
100
AcDbPolyline
90
4
70
1
43
0.0
10
42.819299999999998
20
42.819299999999998
10
56.618600000000008
20
42.819299999999998
10
56.618600000000008
20
56.618600000000008
10
42.819299999999998
20
56.618600000000008
0
LWPOLYLINE
5
112
100
AcDbEntity
8
0
100
AcDbPolyline
90
4
70
1
43
0.0
10
61.869300000000003
20
42.819299999999998
10
75.668600000000012
20
42.819299999999998
10
75.668600000000012
20
56.618600000000008
10
61.869300000000003
20
56.618600000000008
0
LWPOLYLINE
5
113
100
AcDbEntity
8
0
100
AcDbPolyline
90
4
70
1
43
0.0
10
42.819299999999998
20
23.769199999999998
10
56.618600000000008
20
23.769199999999998
10
56.618600000000008
20
37.568600000000004
10
42.819299999999998
20
37.568600000000004
0
LWPOLYLINE
5
114
100
AcDbEntity
8
0
100
AcDbPolyline
90
4
70
1
43
0.0
10
61.869300000000003
20
23.769199999999998
10
75.668600000000012
20
23.769199999999998
10
75.668600000000012
20
37.568600000000004
10
61.869300000000003
20
37.568600000000004
0
LWPOLYLINE
5
115
100
AcDbEntity
8
0
100
AcDbPolyline
90
4
70
1
43
0.0
10
42.819299999999998
20
4.7192000000000007
10
56.618600000000008
20
4.7192000000000007
10
56.618600000000008
20
18.518700000000003
10
42.819299999999998
20
18.518700000000003
0
LWPOLYLINE
5
116
100
AcDbEntity
8
0
100
AcDbPolyline
90
4
70
1
43
0.0
10
61.869300000000003
20
4.7192000000000007
10
75.668600000000012
20
4.7192000000000007
10
75.668600000000012
20
18.518700000000003
10
61.869300000000003
20
18.518700000000003
0
LWPOLYLINE
5
117
100
AcDbEntity
8
0
100
AcDbPolyline
90
4
70
1
43
0.0
10
80.919299999999993
20
80.919299999999993
10
94.718600000000009
20
80.919299999999993
10
94.718600000000009
20
94.719999999999999
10
80.919299999999993
20
94.719999999999999
0
LWPOLYLINE
5
118
100
AcDbEntity
8
0
100
AcDbPolyline
90
4
70
1
43
0.0
10
99.967900000000014
20
80.919299999999993
10
113.76700000000001
20
80.919299999999993
10
113.76700000000001
20
94.719999999999999
10
99.967900000000014
20
94.719999999999999
0
LWPOLYLINE
5
119
100
AcDbEntity
8
0
100
AcDbPolyline
90
4
70
1
43
0.0
10
80.919299999999993
20
61.869300000000003
10
94.718600000000009
20
61.869300000000003
10
94.718600000000009
20
75.668600000000012
10
80.919299999999993
20
75.668600000000012
0
LWPOLYLINE
5
120
100
AcDbEntity
8
0
100
AcDbPolyline
90
4
70
1
43
0.0
10
99.967900000000014
20
61.869300000000003
10
113.76700000000001
20
61.869300000000003
10
113.76700000000001
20
75.668600000000012
10
99.967900000000014
20
75.668600000000012
0
LWPOLYLINE
5
121
100
AcDbEntity
8
0
100
AcDbPolyline
90
4
70
1
43
0.0
10
80.919299999999993
20
42.819299999999998
10
94.718600000000009
20
42.819299999999998
10
94.718600000000009
20
56.618600000000008
10
80.919299999999993
20
56.618600000000008
0
LWPOLYLINE
5
122
100
AcDbEntity
8
0
100
AcDbPolyline
90
4
70
1
43
0.0
10
99.967900000000014
20
42.819299999999998
10
113.76700000000001
20
42.819299999999998
10
113.76700000000001
20
56.618600000000008
10
99.967900000000014
20
56.618600000000008
0
LWPOLYLINE
5
123
100
AcDbEntity
8
0
100
AcDbPolyline
90
4
70
1
43
0.0
10
80.919299999999993
20
23.769199999999998
10
94.718600000000009
20
23.769199999999998
10
94.718600000000009
20
37.568600000000004
10
80.919299999999993
20
37.568600000000004
0
LWPOLYLINE
5
124
100
AcDbEntity
8
0
100
AcDbPolyline
90
4
70
1
43
0.0
10
99.967900000000014
20
23.769199999999998
10
113.76700000000001
20
23.769199999999998
10
113.76700000000001
20
37.568600000000004
10
99.967900000000014
20
37.568600000000004
0
LWPOLYLINE
5
125
100
AcDbEntity
8
0
100
AcDbPolyline
90
4
70
1
43
0.0
10
80.919299999999993
20
4.7192000000000007
10
94.718600000000009
20
4.7192000000000007
10
94.718600000000009
20
18.518700000000003
10
80.919299999999993
20
18.518700000000003
0
LWPOLYLINE
5
126
100
AcDbEntity
8
0
100
AcDbPolyline
90
4
70
1
43
0.0
10
109.49399999999999
20
4.7192000000000007
10
123.294
20
4.7192000000000007
10
123.294
20
18.518700000000003
10
109.49399999999999
20
18.518700000000003
0
LWPOLYLINE
5
127
100
AcDbEntity
8
0
100
AcDbPolyline
90
4
70
1
43
0.0
10
119.018
20
80.919299999999993
10
132.81899999999999
20
80.919299999999993
10
132.81899999999999
20
94.719999999999999
10
119.018
20
94.719999999999999
0
LWPOLYLINE
5
128
100
AcDbEntity
8
0
100
AcDbPolyline
90
4
70
1
43
0.0
10
138.06900000000002
20
80.919299999999993
10
151.869
20
80.919299999999993
10
151.869
20
94.719999999999999
10
138.06900000000002
20
94.719999999999999
0
LWPOLYLINE
5
129
100
AcDbEntity
8
0
100
AcDbPolyline
90
4
70
1
43
0.0
10
119.018
20
61.869300000000003
10
132.81899999999999
20
61.869300000000003
10
132.81899999999999
20
75.668600000000012
10
119.018
20
75.668600000000012
0
LWPOLYLINE
5
130
100
AcDbEntity
8
0
100
AcDbPolyline
90
4
70
1
43
0.0
10
138.06900000000002
20
61.869300000000003
10
151.869
20
61.869300000000003
10
151.869
20
75.668600000000012
10
138.06900000000002
20
75.668600000000012
0
LWPOLYLINE
5
131
100
AcDbEntity
8
0
100
AcDbPolyline
90
4
70
1
43
0.0
10
119.018
20
42.819299999999998
10
132.81899999999999
20
42.819299999999998
10
132.81899999999999
20
56.618600000000008
10
119.018
20
56.618600000000008
0
LWPOLYLINE
5
132
100
AcDbEntity
8
0
100
AcDbPolyline
90
4
70
1
43
0.0
10
138.06900000000002
20
42.819299999999998
10
151.869
20
42.819299999999998
10
151.869
20
56.618600000000008
10
138.06900000000002
20
56.618600000000008
0
LWPOLYLINE
5
133
100
AcDbEntity
8
0
100
AcDbPolyline
90
4
70
1
43
0.0
10
119.018
20
23.769199999999998
10
132.81899999999999
20
23.769199999999998
10
132.81899999999999
20
37.568600000000004
10
119.018
20
37.568600000000004
0
LWPOLYLINE
5
134
100
AcDbEntity
8
0
100
AcDbPolyline
90
4
70
1
43
0.0
10
138.06900000000002
20
23.769199999999998
10
151.869
20
23.769199999999998
10
151.869
20
37.568600000000004
10
138.06900000000002
20
37.568600000000004
0
LWPOLYLINE
5
135
100
AcDbEntity
8
0
100
AcDbPolyline
90
4
70
1
43
0.0
10
147.59400000000002
20
4.7192000000000007
10
161.39399999999998
20
4.7192000000000007
10
161.39399999999998
20
18.518700000000003
10
147.59400000000002
20
18.518700000000003
0
LWPOLYLINE
5
136
100
AcDbEntity
8
0
100
AcDbPolyline
90
4
70
1
43
0.0
10
157.11900000000003
20
80.919299999999993
10
170.91899999999998
20
80.919299999999993
10
170.91899999999998
20
94.719999999999999
10
157.11900000000003
20
94.719999999999999
0
LWPOLYLINE
5
137
100
AcDbEntity
8
0
100
AcDbPolyline
90
4
70
1
43
0.0
10
176.16900000000004
20
80.919299999999993
10
189.96899999999999
20
80.919299999999993
10
189.96899999999999
20
94.719999999999999
10
176.16900000000004
20
94.719999999999999
0
LWPOLYLINE
5
138
100
AcDbEntity
8
0
100
AcDbPolyline
90
4
70
1
43
0.0
10
157.11900000000003
20
61.869300000000003
10
170.91899999999998
20
61.869300000000003
10
170.91899999999998
20
75.668600000000012
10
157.11900000000003
20
75.668600000000012
0
LWPOLYLINE
5
139
100
AcDbEntity
8
0
100
AcDbPolyline
90
4
70
1
43
0.0
10
176.16900000000004
20
61.869300000000003
10
189.96899999999999
20
61.869300000000003
10
189.96899999999999
20
75.668600000000012
10
176.16900000000004
20
75.668600000000012
0
LWPOLYLINE
5
140
100
AcDbEntity
8
0
100
AcDbPolyline
90
4
70
1
43
0.0
10
157.11900000000003
20
42.819299999999998
10
170.91899999999998
20
42.819299999999998
10
170.91899999999998
20
56.618600000000008
10
157.11900000000003
20
56.618600000000008
0
LWPOLYLINE
5
141
100
AcDbEntity
8
0
100
AcDbPolyline
90
4
70
1
43
0.0
10
176.16900000000004
20
42.819299999999998
10
189.96899999999999
20
42.819299999999998
10
189.96899999999999
20
56.618600000000008
10
176.16900000000004
20
56.618600000000008
0
LWPOLYLINE
5
142
100
AcDbEntity
8
0
100
AcDbPolyline
90
4
70
1
43
0.0
10
157.11900000000003
20
23.769199999999998
10
170.91899999999998
20
23.769199999999998
10
170.91899999999998
20
37.568600000000004
10
157.11900000000003
20
37.568600000000004
0
LWPOLYLINE
5
143
100
AcDbEntity
8
0
100
AcDbPolyline
90
4
70
1
43
0.0
10
176.16900000000004
20
23.769199999999998
10
189.96899999999999
20
23.769199999999998
10
189.96899999999999
20
37.568600000000004
10
176.16900000000004
20
37.568600000000004
0
LWPOLYLINE
5
144
100
AcDbEntity
8
0
100
AcDbPolyline
90
4
70
1
43
0.0
10
176.16900000000004
20
4.7192000000000007
10
189.96899999999999
20
4.7192000000000007
10
189.96899999999999
20
18.518700000000003
10
176.16900000000004
20
18.518700000000003
0
LWPOLYLINE
5
145
100
AcDbEntity
8
0
100
AcDbPolyline
90
4
70
1
43
0.0
10
195.21900000000005
20
80.919299999999993
10
209.01900000000001
20
80.919299999999993
10
209.01900000000001
20
94.719999999999999
10
195.21900000000005
20
94.719999999999999
0
LWPOLYLINE
5
146
100
AcDbEntity
8
0
100
AcDbPolyline
90
4
70
1
43
0.0
10
214.26900000000003
20
80.919299999999993
10
228.06900000000002
20
80.919299999999993
10
228.06900000000002
20
94.719999999999999
10
214.26900000000003
20
94.719999999999999
0
LWPOLYLINE
5
147
100
AcDbEntity
8
0
100
AcDbPolyline
90
4
70
1
43
0.0
10
195.21900000000005
20
61.869300000000003
10
209.01900000000001
20
61.869300000000003
10
209.01900000000001
20
75.668600000000012
10
195.21900000000005
20
75.668600000000012
0
LWPOLYLINE
5
148
100
AcDbEntity
8
0
100
AcDbPolyline
90
4
70
1
43
0.0
10
214.26900000000003
20
61.869300000000003
10
228.06900000000002
20
61.869300000000003
10
228.06900000000002
20
75.668600000000012
10
214.26900000000003
20
75.668600000000012
0
LWPOLYLINE
5
149
100
AcDbEntity
8
0
100
AcDbPolyline
90
4
70
1
43
0.0
10
195.21900000000005
20
42.819299999999998
10
209.01900000000001
20
42.819299999999998
10
209.01900000000001
20
56.618600000000008
10
195.21900000000005
20
56.618600000000008
0
LWPOLYLINE
5
150
100
AcDbEntity
8
0
100
AcDbPolyline
90
4
70
1
43
0.0
10
214.26900000000003
20
42.819299999999998
10
228.06900000000002
20
42.819299999999998
10
228.06900000000002
20
56.618600000000008
10
214.26900000000003
20
56.618600000000008
0
LWPOLYLINE
5
151
100
AcDbEntity
8
0
100
AcDbPolyline
90
4
70
1
43
0.0
10
195.21900000000005
20
23.769199999999998
10
209.01900000000001
20
23.769199999999998
10
209.01900000000001
20
37.568600000000004
10
195.21900000000005
20
37.568600000000004
0
LWPOLYLINE
5
152
100
AcDbEntity
8
0
100
AcDbPolyline
90
4
70
1
43
0.0
10
214.26900000000003
20
23.769199999999998
10
228.06900000000002
20
23.769199999999998
10
228.06900000000002
20
37.568600000000004
10
214.26900000000003
20
37.568600000000004
0
LWPOLYLINE
5
153
100
AcDbEntity
8
0
100
AcDbPolyline
90
4
70
1
43
0.0
10
195.21900000000005
20
4.7192000000000007
10
209.01900000000001
20
4.7192000000000007
10
209.01900000000001
20
18.518700000000003
10
195.21900000000005
20
18.518700000000003
0
LWPOLYLINE
5
154
100
AcDbEntity
8
0
100
AcDbPolyline
90
4
70
1
43
0.0
10
214.26900000000003
20
4.7192000000000007
10
228.06900000000002
20
4.7192000000000007
10
228.06900000000002
20
18.518700000000003
10
214.26900000000003
20
18.518700000000003
0
LWPOLYLINE
5
155
100
AcDbEntity
8
0
100
AcDbPolyline
90
8
70
1
43
0.0
10
233.31900000000005
20
80.919299999999993
10
247.11900000000003
20
80.919299999999993
10
252.36900000000003
20
80.919299999999993
10
266.16899999999998
20
80.919299999999993
10
266.16899999999998
20
94.719999999999999
10
252.36900000000003
20
94.719999999999999
10
247.11900000000003
20
94.719999999999999
10
233.31900000000005
20
94.719999999999999
0
LWPOLYLINE
5
156
100
AcDbEntity
8
0
100
AcDbPolyline
90
8
70
1
43
0.0
10
233.31900000000005
20
61.869300000000003
10
247.11900000000003
20
61.869300000000003
10
252.36900000000003
20
61.869300000000003
10
266.16899999999998
20
61.869300000000003
10
266.16899999999998
20
75.668600000000012
10
252.36900000000003
20
75.668600000000012
10
247.11900000000003
20
75.668600000000012
10
233.31900000000005
20
75.668600000000012
0
LWPOLYLINE
5
157
100
AcDbEntity
8
0
100
AcDbPolyline
90
8
70
1
43
0.0
10
233.31900000000005
20
42.819299999999998
10
247.11900000000003
20
42.819299999999998
10
252.36900000000003
20
42.819299999999998
10
266.16899999999998
20
42.819299999999998
10
266.16899999999998
20
56.618600000000008
10
252.36900000000003
20
56.618600000000008
10
247.11900000000003
20
56.618600000000008
10
233.31900000000005
20
56.618600000000008
0
LWPOLYLINE
5
158
100
AcDbEntity
8
0
100
AcDbPolyline
90
8
70
1
43
0.0
10
233.31900000000005
20
23.769199999999998
10
247.11900000000003
20
23.769199999999998
10
252.36900000000003
20
23.769199999999998
10
266.16899999999998
20
23.769199999999998
10
266.16899999999998
20
37.568600000000004
10
252.36900000000003
20
37.568600000000004
10
247.11900000000003
20
37.568600000000004
10
233.31900000000005
20
37.568600000000004
0
LWPOLYLINE
5
159
100
AcDbEntity
8
0
100
AcDbPolyline
90
4
70
1
43
0.0
10
233.31900000000005
20
4.7192000000000007
10
247.11900000000003
20
4.7192000000000007
10
247.11900000000003
20
18.518700000000003
10
233.31900000000005
20
18.518700000000003
0
CIRCLE
5
160
100
AcDbEntity
8
0
100
AcDbCircle
10
21.14395
20
78.288743179490098
30
0
40
1.0999999999999988
0
CIRCLE
5
161
100
AcDbEntity
8
0
100
AcDbCircle
10
135.44374999999999
20
78.293949999999995
30
0
40
1.1000000000000032
0
LINE
5
162
100
AcDbEntity
8
0
100
AcDbLine
10
249.74400000000003
20
80.919299999999993
30
0
11
249.74400000000003
21
75.668600000000012
31
0
0
CIRCLE
5
163
100
AcDbEntity
8
0
100
AcDbCircle
10
249.74400000000003
20
78.293949999999995
30
0
40
1.1000000000000114
0
CIRCLE
5
164
100
AcDbEntity
8
0
100
AcDbCircle
10
135.44374999999999
20
40.193950000000001
30
0
40
1.0999999999999985
0
LINE
5
165
100
AcDbEntity
8
0
100
AcDbLine
10
123.294
20
11.618950000000002
30
0
11
147.59400000000002
21
11.618950000000002
31
0
0
CIRCLE
5
166
100
AcDbEntity
8
0
100
AcDbCircle
10
135.44399999999999
20
11.618950000000002
30
0
40
1.100000000000001
0
CIRCLE
5
167
100
AcDbEntity
8
0
100
AcDbCircle
10
21.14395
20
21.14395
30
0
40
1.1000000000000005
0
CIRCLE
5
168
100
AcDbEntity
8
0
100
AcDbCircle
10
249.74400000000003
20
21.14395
30
0
40
1.1000000000000061
0
ENDSEC
0
SECTION
2
OBJECTS
0
DICTIONARY
5
C
100
AcDbDictionary
3
ACAD_GROUP
350
D
3
ACAD_MLINESTYLE
350
17
0
DICTIONARY
5
D
100
AcDbDictionary
0
DICTIONARY
5
1A
330
C
100
AcDbDictionary
0
DICTIONARY
5
17
100
AcDbDictionary
0
ENDSEC
0
EOF
